<?xml version="1.0" encoding="UTF-8" standalone="no"?>
<!-- Created with Inkscape (http://www.inkscape.org/) -->

<svg
   xmlns:dc="http://purl.org/dc/elements/1.1/"
   xmlns:cc="http://creativecommons.org/ns#"
   xmlns:rdf="http://www.w3.org/1999/02/22-rdf-syntax-ns#"
   xmlns:svg="http://www.w3.org/2000/svg"
   xmlns="http://www.w3.org/2000/svg"
   xmlns:sodipodi="http://sodipodi.sourceforge.net/DTD/sodipodi-0.dtd"
   xmlns:inkscape="http://www.inkscape.org/namespaces/inkscape"
   id="svg2"
   version="1.1"
   inkscape:version="0.91 r13725"
   xml:space="preserve"
   width="1250"
   height="990"
   viewBox="0 0 1250 990"
   sodipodi:docname="Samza-just-logo.svg"
   inkscape:export-filename="/home/nsolis/Documents/samza-logo/Samza-logo.png"
   inkscape:export-xdpi="286.15891"
   inkscape:export-ydpi="286.15891"><metadata
     id="metadata8"><rdf:RDF><cc:Work
         rdf:about=""><dc:format>image/svg+xml</dc:format><dc:type
           rdf:resource="http://purl.org/dc/dcmitype/StillImage" /><dc:title></dc:title></cc:Work></rdf:RDF></metadata><defs
     id="defs6"><clipPath
       clipPathUnits="userSpaceOnUse"
       id="clipPath16"><path
         d="M 0,792 1000,792 1000,0 0,0 0,792 Z"
         id="path18"
         inkscape:connector-curvature="0" /></clipPath></defs><sodipodi:namedview
     pagecolor="#ffffff"
     bordercolor="#666666"
     borderopacity="1"
     objecttolerance="10"
     gridtolerance="10"
     guidetolerance="10"
     inkscape:pageopacity="0"
     inkscape:pageshadow="2"
     inkscape:window-width="1920"
     inkscape:window-height="1099"
     id="namedview4"
     showgrid="false"
     inkscape:zoom="0.68"
     inkscape:cx="402.1077"
     inkscape:cy="492.05882"
     inkscape:window-x="1920"
     inkscape:window-y="28"
     inkscape:window-maximized="1"
     inkscape:current-layer="g14" /><g
     id="g10"
     inkscape:groupmode="layer"
     inkscape:label="Samza"
     transform="matrix(1.25,0,0,-1.25,0,990)"><g
       id="g12"><g
         id="g14"
         clip-path="url(#clipPath16)"><g
           id="g3370"
           transform="matrix(0.28626938,0,0,1,48.272298,0)"
           inkscape:export-xdpi="286.15891"
           inkscape:export-ydpi="286.15891"
           style="fill:#000000"><rect
             transform="scale(1,-1)"
             y="-491.76471"
             x="54.44706"
             height="257.64706"
             width="908.23523"
             id="rect3368"
             style="fill:#000000;fill-opacity:1"
             inkscape:export-xdpi="286.15891"
             inkscape:export-ydpi="286.15891" /></g><g
           id="g20"
           transform="translate(150.27,319.0088)"><path
             d="M 0,0 C 5.637,-4.369 -0.678,-12.957 -6.524,-8.922 -12.666,-4.668 -5.984,4.638 0,0 m 53.821,105.424 6.634,12.562 C -12.52,136.946 -63.206,49.347 -14.854,-4.955 c 0.542,-10.587 14.024,-14.858 20.54,-6.451 6.837,8.823 -1.729,21.207 -12.369,18.031 -35.374,44.359 3.478,110.341 60.504,98.799"
             style="fill:#ee3538;fill-opacity:1;fill-rule:nonzero;stroke:none"
             id="path22"
             inkscape:connector-curvature="0" /></g><g
           id="g24"
           transform="translate(94.2788,344.2451)"><path
             d="M 0,0 C -2.437,1.889 -2.825,5.382 -0.981,7.761 2.24,11.918 8.898,9.63 8.917,4.39 8.935,-0.187 3.651,-2.83 0,0 m 147.521,109.731 c 4.542,-11.997 -13.571,-18.745 -18.038,-6.807 -4.478,11.975 13.541,18.665 18.038,6.807 M 8.671,14.566 c -3.663,61.302 54.446,108.122 114.279,90.547 0.934,-12.123 14.692,-18.519 24.549,-11.58 7.565,-5.143 14.518,-11.595 20.531,-19.408 l 12.898,5.64 c -7.707,10.728 -16.829,19.345 -26.824,25.959 0.506,13.757 -15.753,21.383 -25.986,12.236 C 59.648,138.863 -10.435,85.858 -4.95,12.264 -15.906,0.651 2.716,-15.239 12.466,-2.662 16.835,2.977 15.072,11.242 8.671,14.566"
             style="fill:#606163;fill-opacity:1;fill-rule:nonzero;stroke:none"
             id="path26"
             inkscape:connector-curvature="0" /></g><g
           id="g28"
           transform="translate(291.4043,375.8301)"
           style="fill:#505050;fill-opacity:1"><path
             d="m 0,0 c -3.25,-4.195 -9.984,-1.818 -9.897,3.482 0.072,4.526 5.303,7.078 8.914,4.279 C 1.446,5.877 1.854,2.392 0,0 m -148.224,-102.441 c -5.005,12.042 13.441,19.216 17.938,7.066 4.311,-11.65 -13.103,-18.692 -17.938,-7.066 M 2.66,12.463 C -9.658,22.01 -23.788,2.779 -10.849,-6.092 c 3.918,-60.597 -52.936,-107.987 -112.922,-91.371 -1.004,12.259 -15.045,18.545 -24.847,11.275 -7.968,5.251 -15.277,11.94 -21.562,20.104 l -12.9,-5.64 c 8.039,-11.192 17.63,-20.085 28.154,-26.8 -0.167,-13.64 16.001,-20.913 26.075,-11.778 67.955,-19.65 136.232,32.567 131.735,104.793 5.733,4.685 5.6,13.458 -0.224,17.972"
             style="fill:#505050;fill-opacity:1;fill-rule:nonzero;stroke:none"
             id="path30"
             inkscape:connector-curvature="0" /></g><g
           id="g32"
           transform="translate(205.458,409.9463)"><path
             d="M 0,0 C 4.769,1.514 9.832,-0.853 11.775,-5.354 13.964,-10.413 11.499,-16.249 6.353,-18.2 -5.929,-22.856 -12.458,-3.953 0,0 m -12.492,-11.618 c 1.735,-11.037 14.157,-16.747 23.676,-10.816 7.687,-8.096 11.574,-19.89 8.146,-32.491 -4.734,-17.39 -20.747,-26.301 -36.13,-25.014 l 0,-13.767 c 45.393,-3.116 68.625,53.433 35.29,83.281 C 19.631,4.126 1.91,12.145 -8.248,1.716 -19.569,3.093 -31.569,0.479 -42.124,-7.29 c -29.316,-21.583 -23.57,-63.799 4.07,-79.999 l 0,17.298 c -1.725,1.771 -3.313,3.771 -4.713,6.028 -14.544,23.445 3.289,53.32 30.275,52.345"
             style="fill:#606163;fill-opacity:1;fill-rule:nonzero;stroke:none"
             id="path34"
             inkscape:connector-curvature="0" /></g><g
           id="g36"
           transform="translate(188.6582,302.4775)"><path
             d="M 0,0 C 3.643,-0.222 7.187,-0.115 10.625,0.27 8.372,0.1 2.535,-0.224 -3.835,0.338 l 0,-0.001 C -2.544,0.182 -1.269,0.077 0,0"
             style="fill:#ee3538;fill-opacity:1;fill-rule:nonzero;stroke:none"
             id="path38"
             inkscape:connector-curvature="0" /></g><g
           id="g40"
           transform="translate(234.3667,409.6387)"><path
             d="M 0,0 C -5.785,4.482 1.002,13.219 6.775,8.744 12.56,4.261 5.777,-4.479 0,0 m 14.81,3.208 c 1.155,11.444 -13.45,17.29 -20.498,8.197 -6.443,-8.314 0.811,-20.163 11.089,-18.336 31.339,-38.922 5.149,-94.856 -40.484,-99.961 0.63,0.048 0.997,0.084 0.997,0.084 0,0 -0.367,-0.036 -0.997,-0.084 -3.438,-0.384 -6.983,-0.491 -10.625,-0.269 -1.269,0.077 -2.545,0.182 -3.835,0.337 l 0,0.001 c -4.654,0.411 -9.578,1.297 -13.585,3.067 l 0,-13.611 c 5.899,-2.435 12.844,-3.246 14.983,-3.447 0.815,-0.07 1.628,-0.13 2.437,-0.172 62.532,-3.258 104.522,72.613 60.518,124.194"
             style="fill:#ee3538;fill-opacity:1;fill-rule:nonzero;stroke:none"
             id="path42"
             inkscape:connector-curvature="0" /></g><path
           style="fill:#505050;fill-opacity:1"
           d="m 237.03125,594.18448 c -0.42969,-0.42994 -0.78125,-4.2192 -0.78125,-8.42059 l 0,-7.63889 3.94781,0 c 2.1713,0 6.70652,-0.71855 10.07827,-1.59678 25.31744,-6.59436 38.89378,-32.50962 29.78495,-56.85515 -2.92176,-7.80912 -8.14704,-14.80575 -10.35148,-13.8606 -0.92879,0.39822 -3.38085,1.20763 -5.44901,1.79869 -7.9813,2.28098 -19.02821,-4.01963 -21.80627,-12.43722 -1.0398,-3.15062 -1.55377,-3.50727 -5.05432,-3.50727 -4.90537,0 -14.09268,2.66458 -18.85828,5.46944 -8.98466,5.28804 -16.33289,14.48717 -19.83032,24.82527 -4.26406,12.60415 -1.28178,29.7618 6.81782,39.22436 3.60732,4.21435 3.6375,4.33247 3.6375,14.24026 0,6.68605 -0.38632,9.99067 -1.16793,9.99067 -2.52517,0 -17.35701,-16.26163 -20.47639,-22.4503 -9.9887,-19.81702 -9.3421,-42.55887 1.68783,-59.36379 11.31768,-17.24332 29.2723,-27.45018 48.75393,-27.71568 7.29315,-0.0994 9.18213,-0.49766 11.91164,-2.51144 10.88052,-8.02739 29.08258,0.18698 29.08258,13.12463 0,2.44339 1.29526,4.72346 5.123,9.01809 6.20157,6.95799 10.92932,15.56316 13.07368,23.79594 2.04347,7.8454 2.04486,22.27099 0.003,30.11057 -5.37759,20.64593 -23.39328,38.84149 -42.67877,43.10484 -7.72068,1.70678 -16.55833,2.54504 -17.44791,1.65495 l -2.1e-4,0 z m 28.07925,-93.63667 c 7.23351,-2.07487 10.04965,-13.09915 4.9073,-19.21049 -7.50536,-8.9196 -21.94001,-3.81432 -21.69183,7.67202 0.12094,5.59736 3.50802,10.61813 8.03709,11.91361 3.29536,0.94259 4.30435,0.89932 8.74744,-0.37514 z"
           id="path4192"
           inkscape:connector-curvature="0"
           transform="matrix(0.8,0,0,-0.8,0,792)" /><path
           style="fill:#505050;fill-opacity:1"
           d="m 118.27138,567.23632 c -4.81493,-1.68764 -6.72274,-3.2206 -8.65256,-6.95248 -2.05659,-3.977 -1.86396,-9.14324 0.48453,-12.99456 1.60357,-2.62973 1.98802,-5.39988 2.06434,-14.87435 0.16051,-19.9286 3.90673,-35.94542 12.59237,-53.83826 17.72653,-36.5175 53.69611,-63.12367 94.34705,-69.78711 14.0362,-2.3008 38.10199,-1.53492 49.95539,1.5898 l 8.33333,2.19678 4.05243,-2.27021 c 7.42219,-4.15798 17.56402,-2.66937 23.2416,3.4114 2.62105,2.80716 5.51847,9.20909 5.51847,12.19317 0,1.24195 2.10156,3.52889 5.46013,5.94178 7.34407,5.27619 15.55833,13.08867 22.28814,21.19797 l 5.557,6.69608 -7.53805,3.29815 -7.53805,3.29816 -6.92832,-7.44441 c -3.81059,-4.09442 -9.54756,-9.46512 -12.74884,-11.93489 l -5.82051,-4.49048 -4.19933,1.68023 c -8.09239,3.23794 -15.49576,1.66048 -21.59258,-4.60079 -1.85511,-1.90514 -3.66195,-5.00458 -4.01521,-6.88765 -0.85759,-4.57128 -1.7265,-5.13079 -10.84104,-6.98075 -24.51588,-4.97596 -47.436,-2.28574 -69.51413,8.15912 -13.6512,6.4582 -24.01808,13.99605 -34.4535,25.05143 -18.64604,19.75381 -28.46612,42.93514 -30.10076,71.05608 l -0.62081,10.67971 3.70354,3.59682 c 10.62817,10.32195 0.71147,27.82731 -13.03463,23.00926 z m 8.37184,-7.39955 c 3.25521,-2.28004 3.25521,-9.06017 0,-11.34021 -5.10327,-3.57447 -11.57378,-0.4045 -11.57378,5.67011 0,6.0746 6.47051,9.24457 11.57378,5.6701 z M 298.90025,436.35135 c 6.25266,-4.45229 6.04252,-13.79313 -0.43288,-19.24182 -2.79791,-2.35429 -3.98935,-2.68105 -8.27435,-2.26931 -10.34815,0.99432 -14.43538,9.66147 -9.18369,19.47436 2.81646,5.2626 11.90723,6.29753 17.89092,2.03677 z"
           id="path4194"
           inkscape:connector-curvature="0"
           transform="matrix(0.8,0,0,-0.8,0,792)" /><path
           style="fill:#ed1c24;fill-opacity:1"
           d="m 231.5625,628.52654 c -1.71875,-0.24803 -6.28906,-1.19347 -10.15625,-2.10097 l -7.03125,-1.64999 0,-8.33257 c 0,-6.81762 0.27223,-8.2281 1.49735,-7.75798 6.25262,2.39936 12.17881,3.16538 24.54432,3.17259 12.51579,0.007 14.97906,-0.29985 22.39583,-2.79273 20.63492,-6.93569 36.20948,-20.46462 45.8111,-39.79406 6.29736,-12.6775 8.23176,-21.1494 8.20563,-35.9375 -0.0193,-10.92248 -0.33863,-12.89983 -3.62016,-22.41635 -1.99566,-5.78744 -5.65243,-13.56044 -8.2083,-17.44791 -4.01033,-6.09972 -5.02051,-7.01124 -7.77378,-7.01463 -6.69868,-0.008 -14.08999,-7.43461 -14.0981,-14.16498 -0.005,-4.25293 3.8294,-9.84754 8.35021,-12.18306 4.09114,-2.11354 9.1445,-1.79095 13.15997,0.84009 3.17243,2.07865 6.60188,7.5836 6.60704,10.6056 0.002,1.25469 2.79532,6.41257 6.20708,11.46196 11.16726,16.52752 15.86614,31.58711 15.86311,50.84012 -0.003,19.5561 -5.09674,36.41057 -15.87236,52.52031 -13.47326,20.14273 -33.35242,34.39899 -55.2642,39.63247 -8.43402,2.0144 -24.79058,3.36045 -30.61724,2.51959 z M 301.95513,477.16346 C 303.62981,475.48878 305,473.40555 305,472.53405 c 0,-2.81683 -4.61833,-7.16947 -7.6071,-7.16947 -7.58445,0 -10.22341,10.35633 -3.47198,13.62543 3.52499,1.70683 4.78796,1.4197 8.03421,-1.82655 z"
           id="path4200"
           inkscape:connector-curvature="0"
           transform="matrix(0.8,0,0,-0.8,0,792)" /><path
           style="fill:#ed1c24;fill-opacity:1"
           d="m 176.55722,608.47635 c -3.41397,-2.251 -5.19458,-4.6579 -6.67488,-9.02262 -0.58766,-1.73274 -3.35628,-6.18587 -6.15249,-9.89583 -6.23576,-8.27351 -12.11964,-20.66772 -15.07044,-31.7454 -3.1998,-12.01243 -3.1873,-30.94026 0.0289,-43.75 8.06246,-32.11203 31.30535,-58.18768 60.81216,-68.22371 10.80888,-3.67638 25.53732,-5.67302 35.01673,-4.74699 8.3026,0.81106 17.7745,2.6021 17.7745,3.36098 0,0.30528 -1.65982,3.7137 -3.68848,7.57426 l -3.68848,7.01919 -5.94694,-0.97407 c -7.19905,-1.17916 -21.55976,-0.3054 -29.38444,1.78786 -14.86874,3.97769 -31.36479,15.09191 -40.7105,27.42869 -17.73211,23.40728 -21.47871,53.61195 -9.80403,79.03905 1.8873,4.11048 4.88016,9.57923 6.65081,12.15278 3.00743,4.37116 3.52711,4.67918 7.89425,4.67918 5.68424,0 10.57091,3.13196 12.64983,8.10751 1.87504,4.4876 1.82272,7.10035 -0.22875,11.42351 -3.32576,7.0085 -13.18254,9.93634 -19.47772,5.78561 z m 10.16694,-4.95675 c 2.3422,-0.89878 4.85846,-6.12171 4.04763,-8.40153 -2.00828,-5.64674 -8.66903,-7.50147 -12.34646,-3.43796 -5.32506,5.88413 0.85227,14.697 8.29883,11.83949 z"
           id="path4202"
           inkscape:connector-curvature="0"
           transform="matrix(0.8,0,0,-0.8,0,792)" /></g></g></g></svg>